# xmcd
#
# Track frame offsets: 
#        150
#        13420
#        25397
#        40660
#        48402
#        57565
#        71730
#        83132
#        95080
#        106782
#
# Disc length: 1544 seconds
#
# Revision: 0
# Processed by: cddbd v1.5.2PL0 Copyright (c) Steve Scherf et al.
# Submitted via: ExactAudioCopyFreeDBPlugin 1.0
#
DISCID=8606060a
DTITLE=Various Artist - Vintage Country and Western Instrumentals
DYEAR=1993
DGENRE=Bluegrass
TTITLE0=Eddie Eddings - Boogie On Guitar
TTITLE1=Herbie Remington - Steel Guitar Stomp
TTITLE2=Moon Mullican - Salty Dog Rag
TTITLE3=Loonie Glosson - I Want My Mama
TTITLE4=Chubby Wise - Orange Blosson Fiddle
TTITLE5=Lonesome Pine Fiddlers and Banjo - Blue Grass Special
TTITLE6=Country Copas - Cincinnati Pickin'
TTITLE7=Bill Boyd - Lone Star Swing
TTITLE8=Ken Clark - Rubber Dolly
TTITLE9=Unknown - Bonus Track (Unlisted)
EXTD=
EXTT0=
EXTT1=
EXTT2=
EXTT3=
EXTT4=
EXTT5=
EXTT6=
EXTT7=
EXTT8=
EXTT9=
PLAYORDER=
